<svg width="61" height="11" viewBox="0 0 61 11" fill="none" xmlns="http://www.w3.org/2000/svg">
<path d="M6.42819 3.14765C6.33902 3.04956 6.20972 2.94701 6.04029 2.84C5.87086 2.72408 5.67022 2.61707 5.43837 2.51898C5.20652 2.42089 4.95684 2.34064 4.68932 2.27821C4.4218 2.21579 4.14537 2.18458 3.86001 2.18458C3.23581 2.18458 2.77211 2.30051 2.46892 2.53236C2.16573 2.76421 2.01414 3.08523 2.01414 3.49542C2.01414 3.79861 2.09885 4.03938 2.26828 4.21772C2.43771 4.38715 2.69631 4.52983 3.04408 4.64575C3.39186 4.76167 3.8288 4.88652 4.35492 5.02028C4.99697 5.17187 5.5543 5.35467 6.02691 5.56869C6.49953 5.77378 6.86068 6.05022 7.11036 6.39799C7.36004 6.74577 7.48489 7.20501 7.48489 7.77571C7.48489 8.25725 7.39571 8.6719 7.21737 9.01967C7.03902 9.36745 6.78934 9.6528 6.46832 9.87573C6.14729 10.0897 5.77723 10.2503 5.35812 10.3573C4.939 10.4554 4.48868 10.5044 4.00715 10.5044C3.53453 10.5044 3.06192 10.4554 2.5893 10.3573C2.1256 10.2592 1.67974 10.1165 1.25171 9.92923C0.8326 9.73305 0.444699 9.49675 0.088008 9.22031L0.770179 7.93622C0.886104 8.05215 1.05107 8.18145 1.26509 8.32412C1.48802 8.45788 1.74216 8.58718 2.02751 8.71203C2.32178 8.83687 2.63835 8.94388 2.9772 9.03305C3.32498 9.1133 3.67721 9.15343 4.0339 9.15343C4.63136 9.15343 5.08614 9.05088 5.39824 8.84579C5.71927 8.63177 5.87978 8.32858 5.87978 7.93622C5.87978 7.6152 5.77723 7.36106 5.57213 7.1738C5.36703 6.97762 5.0683 6.81265 4.67594 6.67889C4.28358 6.54513 3.81543 6.41137 3.27147 6.27761C2.64727 6.10818 2.1256 5.92538 1.70649 5.7292C1.28738 5.5241 0.970818 5.2655 0.756803 4.9534C0.551706 4.63237 0.449158 4.22664 0.449158 3.73619C0.449158 3.11198 0.600751 2.58586 0.903938 2.15783C1.20713 1.72088 1.61732 1.3954 2.13452 1.18139C2.66064 0.958458 3.24918 0.846992 3.90014 0.846992C4.32817 0.846992 4.73391 0.896037 5.11735 0.994127C5.50079 1.0833 5.85748 1.20814 6.18742 1.36865C6.52628 1.52916 6.83392 1.71197 7.11036 1.91706L6.42819 3.14765ZM11.9702 10.5445C11.4262 10.5445 10.9313 10.4509 10.4855 10.2636C10.0485 10.0675 9.66955 9.80439 9.34853 9.47445C9.0275 9.1356 8.77782 8.75215 8.59947 8.32412C8.43005 7.88718 8.34533 7.42348 8.34533 6.93303C8.34533 6.27315 8.49693 5.67124 8.80011 5.12728C9.1033 4.57441 9.52687 4.13301 10.0708 3.80307C10.6148 3.46421 11.2524 3.29478 11.9836 3.29478C12.7148 3.29478 13.3435 3.46421 13.8696 3.80307C14.4046 4.13301 14.8193 4.56995 15.1135 5.11391C15.4078 5.65786 15.5549 6.24194 15.5549 6.86615C15.5549 6.97316 15.5505 7.07571 15.5416 7.1738C15.5327 7.26297 15.5237 7.33877 15.5148 7.40119H9.91031C9.93707 7.81138 10.0485 8.17253 10.2447 8.48464C10.4498 8.78782 10.7084 9.02859 11.0205 9.20693C11.3326 9.37636 11.667 9.46108 12.0237 9.46108C12.4161 9.46108 12.7861 9.36299 13.1339 9.16681C13.4906 8.97063 13.7314 8.71203 13.8562 8.391L15.1135 8.75215C14.9619 9.09101 14.7301 9.39866 14.418 9.67509C14.1148 9.94261 13.7537 10.1566 13.3345 10.3171C12.9154 10.4687 12.4607 10.5445 11.9702 10.5445ZM9.87019 6.42475H14.097C14.0702 6.02347 13.9543 5.67124 13.7492 5.36805C13.553 5.05594 13.2989 4.81518 12.9868 4.64575C12.6836 4.4674 12.3447 4.37823 11.9702 4.37823C11.6046 4.37823 11.2657 4.4674 10.9536 4.64575C10.6504 4.81518 10.4008 5.05594 10.2046 5.36805C10.0084 5.67124 9.89694 6.02347 9.87019 6.42475ZM19.9252 10.5445C19.3813 10.5445 18.8863 10.4509 18.4405 10.2636C18.0035 10.0675 17.6246 9.80439 17.3035 9.47445C16.9825 9.1356 16.7328 8.75215 16.5545 8.32412C16.3851 7.88718 16.3003 7.42348 16.3003 6.93303C16.3003 6.27315 16.4519 5.67124 16.7551 5.12728C17.0583 4.57441 17.4819 4.13301 18.0258 3.80307C18.5698 3.46421 19.2074 3.29478 19.9386 3.29478C20.6698 3.29478 21.2985 3.46421 21.8246 3.80307C22.3596 4.13301 22.7743 4.56995 23.0685 5.11391C23.3628 5.65786 23.51 6.24194 23.51 6.86615C23.51 6.97316 23.5055 7.07571 23.4966 7.1738C23.4877 7.26297 23.4787 7.33877 23.4698 7.40119H17.8653C17.8921 7.81138 18.0035 8.17253 18.1997 8.48464C18.4048 8.78782 18.6634 9.02859 18.9755 9.20693C19.2876 9.37636 19.622 9.46108 19.9787 9.46108C20.3711 9.46108 20.7411 9.36299 21.0889 9.16681C21.4456 8.97063 21.6864 8.71203 21.8112 8.391L23.0685 8.75215C22.917 9.09101 22.6851 9.39866 22.373 9.67509C22.0698 9.94261 21.7087 10.1566 21.2896 10.3171C20.8704 10.4687 20.4157 10.5445 19.9252 10.5445ZM17.8252 6.42475H22.052C22.0252 6.02347 21.9093 5.67124 21.7042 5.36805C21.508 5.05594 21.2539 4.81518 20.9418 4.64575C20.6386 4.4674 20.2997 4.37823 19.9252 4.37823C19.5596 4.37823 19.2207 4.4674 18.9086 4.64575C18.6055 4.81518 18.3558 5.05594 18.1596 5.36805C17.9634 5.67124 17.8519 6.02347 17.8252 6.42475ZM38.7156 10.4108H37.2443V6.49163C37.2443 5.84066 37.1373 5.36359 36.9233 5.0604C36.7093 4.75722 36.3972 4.60562 35.987 4.60562C35.5768 4.60562 35.1933 4.76167 34.8366 5.07378C34.4889 5.37697 34.2436 5.77379 34.101 6.26424V10.4108H32.6296V6.49163C32.6296 5.84066 32.5226 5.36359 32.3086 5.0604C32.0946 4.75722 31.7869 4.60562 31.3856 4.60562C30.9755 4.60562 30.592 4.75722 30.2353 5.0604C29.8875 5.36359 29.6379 5.76041 29.4863 6.25086V10.4108H28.0149V3.41517H29.3525V4.81964C29.6289 4.32919 29.9901 3.95466 30.436 3.69606C30.8907 3.42854 31.4079 3.29478 31.9876 3.29478C32.5672 3.29478 33.022 3.44638 33.3519 3.74956C33.6908 4.05275 33.9003 4.43174 33.9806 4.88652C34.2838 4.36931 34.6538 3.97695 35.0908 3.70944C35.5366 3.433 36.0449 3.29478 36.6156 3.29478C37.0258 3.29478 37.3691 3.37058 37.6456 3.52217C37.922 3.67377 38.136 3.88332 38.2876 4.15084C38.4392 4.40944 38.5462 4.71263 38.6086 5.0604C38.68 5.39926 38.7156 5.76041 38.7156 6.14385V10.4108ZM43.5545 10.5445C43.0016 10.5445 42.5067 10.4509 42.0698 10.2636C41.6328 10.0675 41.2538 9.79993 40.9328 9.46108C40.6207 9.12222 40.3799 8.73878 40.2105 8.31075C40.0411 7.8738 39.9564 7.4101 39.9564 6.91965C39.9564 6.4292 40.0411 5.96551 40.2105 5.52856C40.3799 5.09161 40.6207 4.70817 40.9328 4.37823C41.2538 4.03938 41.6328 3.77632 42.0698 3.58905C42.5156 3.39287 43.0105 3.29478 43.5545 3.29478C44.0984 3.29478 44.5889 3.39287 45.0258 3.58905C45.4717 3.77632 45.8507 4.03938 46.1628 4.37823C46.4838 4.70817 46.729 5.09161 46.8985 5.52856C47.0679 5.96551 47.1526 6.4292 47.1526 6.91965C47.1526 7.4101 47.0679 7.8738 46.8985 8.31075C46.729 8.73878 46.4838 9.12222 46.1628 9.46108C45.8507 9.79993 45.4717 10.0675 45.0258 10.2636C44.5889 10.4509 44.0984 10.5445 43.5545 10.5445ZM41.4678 6.93303C41.4678 7.37889 41.5615 7.78017 41.7487 8.13686C41.936 8.49355 42.1857 8.77445 42.4978 8.97954C42.8099 9.18464 43.1621 9.28719 43.5545 9.28719C43.9379 9.28719 44.2857 9.18464 44.5978 8.97954C44.9188 8.76553 45.173 8.48018 45.3602 8.12349C45.5475 7.75788 45.6411 7.3566 45.6411 6.91965C45.6411 6.47379 45.5475 6.07251 45.3602 5.71582C45.173 5.35913 44.9188 5.07824 44.5978 4.87314C44.2857 4.65913 43.9379 4.55212 43.5545 4.55212C43.1621 4.55212 42.8099 4.65913 42.4978 4.87314C42.1857 5.08715 41.936 5.37251 41.7487 5.7292C41.5615 6.07697 41.4678 6.47825 41.4678 6.93303ZM52.3901 4.68588C51.8194 4.6948 51.3111 4.8241 50.8653 5.07378C50.4283 5.32346 50.1162 5.67569 49.9289 6.13048V10.4108H48.4576V3.41517H49.8219V4.98015C50.0627 4.49862 50.3793 4.11517 50.7716 3.82982C51.164 3.53555 51.5786 3.37504 52.0156 3.34829C52.1048 3.34829 52.1761 3.34829 52.2296 3.34829C52.292 3.34829 52.3455 3.35275 52.3901 3.36166V4.68588ZM56.5 10.5445C55.956 10.5445 55.4611 10.4509 55.0152 10.2636C54.5783 10.0675 54.1993 9.80439 53.8783 9.47445C53.5573 9.1356 53.3076 8.75215 53.1292 8.32412C52.9598 7.88718 52.8751 7.42348 52.8751 6.93303C52.8751 6.27315 53.0267 5.67124 53.3299 5.12728C53.6331 4.57441 54.0566 4.13301 54.6006 3.80307C55.1445 3.46421 55.7821 3.29478 56.5133 3.29478C57.2446 3.29478 57.8732 3.46421 58.3993 3.80307C58.9344 4.13301 59.349 4.56995 59.6433 5.11391C59.9376 5.65786 60.0847 6.24194 60.0847 6.86615C60.0847 6.97316 60.0802 7.07571 60.0713 7.1738C60.0624 7.26297 60.0535 7.33877 60.0446 7.40119H54.4401C54.4668 7.81138 54.5783 8.17253 54.7745 8.48464C54.9796 8.78782 55.2382 9.02859 55.5503 9.20693C55.8624 9.37636 56.1968 9.46108 56.5535 9.46108C56.9458 9.46108 57.3159 9.36299 57.6637 9.16681C58.0204 8.97063 58.2611 8.71203 58.386 8.391L59.6433 8.75215C59.4917 9.09101 59.2599 9.39866 58.9478 9.67509C58.6446 9.94261 58.2834 10.1566 57.8643 10.3171C57.4452 10.4687 56.9904 10.5445 56.5 10.5445ZM54.3999 6.42475H58.6267C58.6 6.02347 58.4841 5.67124 58.279 5.36805C58.0828 5.05594 57.8286 4.81518 57.5165 4.64575C57.2133 4.4674 56.8745 4.37823 56.5 4.37823C56.1344 4.37823 55.7955 4.4674 55.4834 4.64575C55.1802 4.81518 54.9305 5.05594 54.7343 5.36805C54.5382 5.67124 54.4267 6.02347 54.3999 6.42475Z" fill="#F72C25"/>
</svg>
